{
    "asset" : {
        "generator" : "Khronos glTF Blender I/O v0.9.36",
        "version" : "2.0"
    },
    "scene" : 0,
    "scenes" : [
        {
            "name" : "Scene",
            "nodes" : [
                0,
                1,
                2
            ]
        }
    ],
    "nodes" : [
        {
            "name" : "Light",
            "rotation" : [
                0.16907575726509094,
                0.7558803558349609,
                -0.27217137813568115,
                0.570947527885437
            ],
            "translation" : [
                4.076245307922363,
                5.903861999511719,
                -1.0054539442062378
            ]
        },
        {
            "name" : "Camera",
            "rotation" : [
                0.483536034822464,
                0.33687159419059753,
                -0.20870360732078552,
                0.7804827094078064
            ],
            "translation" : [
                7.358891487121582,
                4.958309173583984,
                6.925790786743164
            ]
        },
        {
            "mesh" : 0,
            "name" : "geometry-lumionModel"
        }
    ],
    "materials" : [
        {
            "doubleSided" : true,
            "name" : "Default material",
            "pbrMetallicRoughness" : {
                "baseColorFactor" : [
                    0.6666666865348816,
                    0.6666666865348816,
                    0.6666666865348816,
                    1
                ],
                "metallicFactor" : 1,
                "roughnessFactor" : 0.5
            }
        }
    ],
    "meshes" : [
        {
            "name" : "Default material",
            "primitives" : [
                {
                    "attributes" : {
                        "POSITION" : 0,
                        "NORMAL" : 1,
                        "TEXCOORD_0" : 2
                    },
                    "indices" : 3,
                    "material" : 0
                }
            ]
        }
    ],
    "accessors" : [
        {
            "bufferView" : 0,
            "componentType" : 5126,
            "count" : 949,
            "max" : [
                0.1810000091791153,
                0.1599999964237213,
                0.5430000424385071
            ],
            "min" : [
                -1.3920000791549683,
                0.009999999776482582,
                -0.05999999865889549
            ],
            "type" : "VEC3"
        },
        {
            "bufferView" : 1,
            "componentType" : 5126,
            "count" : 949,
            "type" : "VEC3"
        },
        {
            "bufferView" : 2,
            "componentType" : 5126,
            "count" : 949,
            "type" : "VEC2"
        },
        {
            "bufferView" : 3,
            "componentType" : 5123,
            "count" : 1164,
            "type" : "SCALAR"
        }
    ],
    "bufferViews" : [
        {
            "buffer" : 0,
            "byteLength" : 11388,
            "byteOffset" : 0
        },
        {
            "buffer" : 0,
            "byteLength" : 11388,
            "byteOffset" : 11388
        },
        {
            "buffer" : 0,
            "byteLength" : 7592,
            "byteOffset" : 22776
        },
        {
            "buffer" : 0,
            "byteLength" : 2328,
            "byteOffset" : 30368
        }
    ],
    "buffers" : [
        {
            "byteLength" : 32696,
            "uri" : "data:application/octet-stream;base64,"
        }
    ]
}
